<?xml version="1.0" standalone="yes"?>
<svg width="105" height="68" viewBox="0 0 105 68" fill="none" xmlns="http://www.w3.org/2000/svg">
<g clip-path="url(#clip0)">
<path d="M52.5033 27.5559C47.9528 27.5559 44.2521 23.8741 44.2521 19.3467C44.2521 14.8193 47.9528 11.1375 52.5033 11.1375C57.0539 11.1375 60.7545 14.8193 60.7545 19.3467C60.7545 23.8741 57.0506 27.5559 52.5033 27.5559ZM52.5033 14.2106C49.6559 14.2106 47.3443 16.5138 47.3443 19.3434C47.3443 22.1763 49.6592 24.4762 52.5033 24.4762C55.3474 24.4762 57.6624 22.173 57.6624 19.3434C57.6624 16.5138 55.3474 14.2106 52.5033 14.2106Z" fill="#232426"/>
<path d="M46.4712 68C44.6787 68 43.0021 67.2004 41.871 65.8054C41.1865 66.8747 39.9066 67.5295 38.5375 67.6578C38.3523 67.6742 38.1704 67.6841 37.9918 67.6841C36.0406 67.6841 34.2515 66.697 33.1998 65.042C32.6178 64.124 32.3102 63.0843 32.3102 62.0347V52.1244C32.3102 51.2755 33.0014 50.5879 33.858 50.5879C34.7145 50.5879 35.4057 51.2755 35.4057 52.1244V62.0347C35.4057 62.5085 35.5446 62.9659 35.8191 63.3936C36.2986 64.1504 37.1154 64.6044 37.9984 64.6044C39.5461 64.4695 40.568 63.2686 40.568 61.8603C40.568 61.0114 41.2592 60.3238 42.1158 60.3238C42.969 60.3238 43.6602 61.0114 43.6602 61.8603C43.6602 63.6667 44.9235 64.9203 46.4745 64.9203H58.5321C60.0798 64.9203 61.3432 63.6634 61.3432 62.1236C61.3432 61.0279 62.0343 60.3369 62.8876 60.3369C63.7408 60.3369 64.4353 61.0246 64.4353 61.8702C64.4419 63.2752 65.4605 64.4695 66.7569 64.5913C66.7701 64.5913 66.7833 64.5913 66.7998 64.5913C67.9077 64.5913 68.7047 64.1438 69.1809 63.4002C69.4554 62.9692 69.5976 62.5118 69.5976 62.0347V48.3373C69.5976 47.4884 70.2888 46.8008 71.1454 46.8008C71.9986 46.8008 72.6898 47.4884 72.6898 48.3373V62.0347C72.6898 63.0909 72.3789 64.1339 71.7902 65.0552C70.7386 66.7003 68.9494 67.6841 67.0082 67.6841C66.8263 67.6841 66.6444 67.6742 66.4625 67.6578C65.0934 67.5295 63.8135 66.8747 62.8578 65.812C61.998 67.2004 60.3213 68 58.5288 68H46.4712Z" fill="#232426"/>
<path d="M66.5221 35.6005C65.6755 35.6005 64.981 34.9162 64.9744 34.0706C64.9314 33.8567 63.797 32.9354 62.4907 32.9354H42.5159C41.2427 32.9354 40.115 33.8468 40.0654 34.087C40.0687 34.8964 39.3775 35.5808 38.5243 35.5808C37.671 35.5808 36.9799 34.8865 36.9799 34.0344C36.9799 31.6818 39.9562 29.8623 42.5192 29.8623H62.494C65.0736 29.8623 68.0698 31.6983 68.0698 34.0673C68.0665 34.9129 67.3753 35.6005 66.5221 35.6005Z" fill="#232426"/>
<path d="M42.1124 62.9987C41.2592 62.9987 40.5647 62.3111 40.5647 61.4589V44.9615C40.5647 44.1126 41.2559 43.4216 42.1124 43.4216C42.9656 43.4216 43.6568 44.1093 43.6568 44.9615V61.4589C43.6601 62.3078 42.9656 62.9987 42.1124 62.9987Z" fill="#232426"/>
<path d="M62.8876 62.8934C62.0344 62.8934 61.3399 62.2057 61.3399 61.3568V45.9255C61.3399 45.0766 62.0311 44.3889 62.8876 44.3889C63.7408 44.3889 64.432 45.0766 64.432 45.9255V61.3568C64.4353 62.2024 63.7408 62.8934 62.8876 62.8934Z" fill="#232426"/>
<path d="M17.7028 37.9139C13.5193 37.9139 10.113 34.5249 10.113 30.3627C10.113 26.1972 13.5193 22.8115 17.7028 22.8115C21.8863 22.8115 25.2926 26.2005 25.2926 30.3627C25.2893 34.5282 21.8863 37.9139 17.7028 37.9139ZM17.7028 25.8879C15.2225 25.8879 13.2052 27.8983 13.2052 30.3627C13.2052 32.8304 15.2225 34.8375 17.7028 34.8375C20.1831 34.8375 22.2004 32.8304 22.2004 30.3627C22.1971 27.8983 20.1798 25.8879 17.7028 25.8879Z" fill="#232426"/>
<path d="M5.90315 68.0002C2.64898 68.0002 0 65.3646 0 62.127V48.3408C0 47.357 0.171968 46.3798 0.512598 45.4322C1.74614 41.9939 5.03669 39.6841 8.70094 39.6841H26.7014C30.3657 39.6841 33.6562 41.9939 34.8865 45.4322C35.2271 46.3798 35.3991 47.357 35.3991 48.3408V62.127C35.3991 65.3646 32.7501 68.0002 29.4926 68.0002H5.90315ZM8.70094 42.7638C6.33968 42.7638 4.21984 44.2543 3.42283 46.4686C3.20457 47.0839 3.09213 47.7123 3.09213 48.3441V62.1303C3.09213 63.6734 4.35543 64.927 5.90315 64.927H29.4992C31.0469 64.927 32.3102 63.6734 32.3102 62.1303V48.3441C32.3102 47.7123 32.1978 47.0839 31.9795 46.4719C31.1825 44.2543 29.0627 42.7638 26.7047 42.7638H8.70094Z" fill="#232426"/>
<path d="M8.70096 67.6612C7.84774 67.6612 7.15656 66.9735 7.15656 66.1214V52.3285C7.15656 51.4797 7.84774 50.792 8.70096 50.792C9.55419 50.792 10.2487 51.4797 10.2487 52.3285V66.1214C10.2487 66.9703 9.55419 67.6612 8.70096 67.6612Z" fill="#232426"/>
<path d="M26.7014 67.6678C25.8482 67.6678 25.1537 66.9801 25.1537 66.1312V52.3285C25.1537 51.4797 25.8449 50.792 26.7014 50.792C27.5546 50.792 28.2458 51.4797 28.2458 52.3285V66.1312C28.2491 66.9768 27.5546 67.6678 26.7014 67.6678Z" fill="#232426"/>
<path d="M87.3005 37.9139C83.117 37.9139 79.7107 34.5249 79.7107 30.3627C79.7107 26.1972 83.117 22.8115 87.3005 22.8115C91.4872 22.8115 94.8902 26.2005 94.8902 30.3627C94.8902 34.5282 91.4872 37.9139 87.3005 37.9139ZM87.3005 25.8879C84.8201 25.8879 82.8028 27.8983 82.8028 30.3627C82.8028 32.8304 84.8201 34.8375 87.3005 34.8375C89.7808 34.8375 91.7981 32.8304 91.7981 30.3627C91.7981 27.8983 89.7775 25.8879 87.3005 25.8879Z" fill="#232426"/>
<path d="M75.5008 68C72.2466 68 69.5976 65.3645 69.5976 62.1269V48.6368C69.5976 47.7879 70.2888 47.1002 71.1453 47.1002C71.9986 47.1002 72.6898 47.7879 72.6898 48.6368V62.1269C72.6898 63.67 73.9531 64.9236 75.5008 64.9236H99.0968C100.645 64.9236 101.908 63.67 101.908 62.1269V48.3406C101.908 47.7089 101.795 47.0805 101.577 46.4685C100.777 44.2508 98.6603 42.7604 96.3024 42.7604H78.2986C77.5412 42.7604 76.8104 42.9084 76.1258 43.1947C75.934 43.2769 75.729 43.3164 75.5206 43.3164C74.8989 43.3164 74.34 42.9479 74.0953 42.3754C73.9332 41.997 73.9332 41.5759 74.0853 41.1975C74.2408 40.8158 74.5351 40.5197 74.9154 40.3585C75.9836 39.9077 77.1212 39.6807 78.2953 39.6807H96.299C99.9633 39.6807 103.251 41.9904 104.484 45.4288C104.825 46.3731 104.997 47.3503 104.997 48.3374V62.1236C104.997 65.3612 102.348 67.9967 99.0935 67.9967H75.5008V68Z" fill="#232426"/>
<path d="M78.2986 67.6613C77.4453 67.6613 76.7509 66.9736 76.7509 66.1215V54.9477C76.7509 54.0988 77.442 53.4111 78.2986 53.4111C79.1518 53.4111 79.843 54.0988 79.843 54.9477V66.1182C79.8463 66.9703 79.1518 67.6613 78.2986 67.6613Z" fill="#232426"/>
<path d="M96.3023 67.6678C95.4491 67.6678 94.7546 66.9801 94.7546 66.1312V52.3285C94.7546 51.4797 95.4458 50.792 96.3023 50.792C97.1556 50.792 97.8467 51.4797 97.8467 52.3285V66.1312C97.8467 66.9768 97.1556 67.6678 96.3023 67.6678Z" fill="#232426"/>
<path d="M52.6422 49.0546C39.05 49.0546 27.9911 38.052 27.9911 24.529C27.9911 11.006 39.0467 0 52.6422 0C66.2343 0 77.2932 11.0027 77.2932 24.5257C77.2932 38.0487 66.2343 49.0546 52.6422 49.0546ZM52.6422 3.0764C40.7532 3.0764 31.0833 12.6971 31.0833 24.5257C31.0833 36.3542 40.7532 45.9749 52.6422 45.9749C64.5311 45.9749 74.2011 36.3542 74.2011 24.5257C74.2011 12.6971 64.5311 3.0764 52.6422 3.0764Z" fill="#232426"/>
<path d="M85.7362 62.4526C84.3968 62.4526 83.1335 61.9327 82.1844 60.9884L65.2025 44.0962C64.8685 43.7671 64.7064 43.3098 64.7593 42.8426C64.8122 42.3754 65.0669 41.9641 65.4637 41.714C67.2132 40.5986 68.6782 39.1542 69.8192 37.4235C70.1796 36.8806 70.593 36.6305 71.0593 36.5845C71.0726 36.5845 71.0858 36.5845 71.099 36.5845C71.6414 36.5845 72.0283 36.7457 72.3094 37.0254L89.288 53.9209C91.2491 55.8688 91.2491 59.0439 89.288 60.9917C88.3389 61.9327 87.0756 62.4526 85.7362 62.4526ZM71.4099 40.4802C70.5633 41.5297 69.5943 42.4872 68.5195 43.3229L84.3704 58.8135C84.7176 59.1557 85.217 59.3564 85.7362 59.3564C86.2554 59.3564 86.7548 59.159 87.102 58.8135C87.4658 58.4516 87.6675 57.9679 87.6675 57.4514C87.6675 56.9381 87.4658 56.4577 87.102 56.0925L71.4099 40.4802Z" fill="#232426"/>
</g>
<defs>
<clipPath id="clip0">
<rect width="105" height="68" fill="white"/>
</clipPath>
</defs>
</svg>
