<?xml version="1.0" standalone="yes"?><svg width="113" height="78" viewBox="0 0 113 78" fill="none" xmlns="http://www.w3.org/2000/svg">
<path d="M56.5198 45.5148C56.1688 45.5148 55.8235 45.3712 55.5753 45.1213L51.0867 40.6006C50.8327 40.3478 50.6929 40.0089 50.6957 39.6499C50.6957 39.2909 50.8355 38.9548 51.0867 38.7021C51.3378 38.4493 51.6745 38.3086 52.0312 38.3086C52.385 38.3086 52.7217 38.4465 52.9728 38.7021L56.6282 42.3813L60.0667 38.7021C60.3179 38.4465 60.6546 38.3086 61.0113 38.3086C61.3651 38.3086 61.7018 38.4465 61.9529 38.7021C62.204 38.9548 62.3439 39.2909 62.3439 39.6499C62.3467 40.0089 62.2069 40.3478 61.9529 40.6006L57.4643 45.1213C57.2161 45.3712 56.8708 45.5148 56.5198 45.5148Z" fill="#232426"/>
<path d="M56.5198 45.5147C55.7836 45.5147 55.1872 44.9144 55.1872 44.1705V31.5159C55.1872 30.7748 55.7836 30.1746 56.5198 30.1746C57.256 30.1746 57.8552 30.7748 57.8552 31.5159V44.1705C57.8552 44.9115 57.256 45.5147 56.5198 45.5147Z" fill="#232426"/>
<path d="M26.0126 43.6623C25.2764 43.6623 24.68 43.062 24.68 42.3182V35.9277C24.68 35.1866 25.2764 34.5835 26.0126 34.5835C26.7488 34.5835 27.348 35.1838 27.348 35.9277V41.1291L32.3646 40.974C33.1008 40.974 33.6972 41.5743 33.6972 42.3153C33.6972 43.0563 33.1008 43.6594 32.3646 43.6594H26.0126V43.6623Z" fill="#232426"/>
<path d="M26.0126 43.6622C25.6559 43.6622 25.322 43.5243 25.0709 43.2687C24.817 43.016 24.68 42.6771 24.68 42.3209C24.68 41.9619 24.817 41.623 25.0709 41.3702L33.9597 32.4235C34.2108 32.1679 34.5475 32.03 34.9042 32.03C35.2581 32.03 35.5948 32.1679 35.8459 32.4235C36.3681 32.9462 36.3681 33.7993 35.8459 34.322L26.9571 43.2687C26.706 43.5215 26.3693 43.6622 26.0126 43.6622Z" fill="#232426"/>
<path d="M80.675 43.6623C79.9388 43.6623 79.3395 43.062 79.3395 42.3182C79.3395 41.5771 79.9359 40.9769 80.675 40.9769H85.8427L85.6886 35.9277C85.6886 35.1866 86.285 34.5835 87.0212 34.5835C87.7575 34.5835 88.3567 35.1838 88.3567 35.9277V42.3182C88.3567 43.0592 87.7603 43.6623 87.0212 43.6623H80.675Z" fill="#232426"/>
<path d="M87.0269 43.6622C86.6702 43.6622 86.3364 43.5243 86.0853 43.2687L77.1965 34.322C76.6743 33.7993 76.6743 32.9462 77.1965 32.4235C77.4476 32.1679 77.7843 32.03 78.141 32.03C78.4948 32.03 78.8316 32.1679 79.0827 32.4235L87.9715 41.3702C88.2254 41.623 88.3624 41.9619 88.3624 42.3209C88.3624 42.6771 88.2254 43.016 87.9715 43.2687C87.7175 43.5215 87.3808 43.6622 87.0269 43.6622Z" fill="#232426"/>
<path d="M68.8443 28.8506C68.1081 28.8506 67.5088 28.2503 67.5088 27.5093V19.8033C67.5088 17.5257 65.6654 15.6703 63.4026 15.6703H49.7113C47.4485 15.6703 45.6051 17.5257 45.6051 19.8033V27.5093C45.6051 28.2503 45.0087 28.8506 44.2696 28.8506C43.5334 28.8506 42.937 28.2503 42.937 27.5093V19.8033C42.937 16.0437 45.976 12.9849 49.7113 12.9849H63.4026C67.1379 12.9849 70.1769 16.0437 70.1769 19.8033V27.5093C70.1769 28.2474 69.5805 28.8506 68.8443 28.8506Z" fill="#232426"/>
<path d="M56.5569 11.9395C53.2868 11.9395 50.6273 9.26265 50.6273 5.97118C50.6273 2.67683 53.2868 0 56.5569 0C59.8271 0 62.4894 2.67683 62.4894 5.97118C62.4894 9.26265 59.8271 11.9395 56.5569 11.9395ZM56.5569 2.68545C54.7592 2.68545 53.2953 4.15886 53.2953 5.9683C53.2953 7.77775 54.7592 9.25116 56.5569 9.25116C58.3575 9.25116 59.8185 7.77775 59.8185 5.9683C59.8214 4.15886 58.3575 2.68545 56.5569 2.68545Z" fill="#232426"/>
<path d="M49.3603 28.8512C48.6241 28.8512 48.0248 28.2509 48.0248 27.5099V20.6484C48.0248 19.9073 48.6212 19.3042 49.3603 19.3042C50.0965 19.3042 50.6929 19.9045 50.6929 20.6484V27.5099C50.6929 28.248 50.0965 28.8512 49.3603 28.8512Z" fill="#232426"/>
<path d="M63.7535 28.8507C63.0173 28.8507 62.4209 28.2504 62.4209 27.5094V20.6479C62.4209 19.9069 63.0173 19.3037 63.7535 19.3037C64.4898 19.3037 65.089 19.904 65.089 20.6479V27.5094C65.089 28.2475 64.4926 28.8507 63.7535 28.8507Z" fill="#232426"/>
<path d="M41.3561 28.8505C40.6199 28.8505 40.0207 28.2502 40.0207 27.5092C40.0207 26.7682 40.617 26.165 41.3561 26.165H71.7605C72.4968 26.165 73.096 26.7653 73.096 27.5092C73.096 28.2502 72.4996 28.8505 71.7605 28.8505H41.3561Z" fill="#232426"/>
<path d="M68.8443 77.8378C68.1081 77.8378 67.5088 77.2375 67.5088 76.4936V68.7877C67.5088 66.5101 65.6654 64.6547 63.4026 64.6547H49.7113C47.4485 64.6547 45.6051 66.5101 45.6051 68.7877V76.4936C45.6051 77.2347 45.0087 77.8378 44.2696 77.8378C43.5334 77.8378 42.937 77.2375 42.937 76.4936V68.7877C42.937 65.0281 45.976 61.9692 49.7113 61.9692H63.4026C67.1379 61.9692 70.1769 65.0281 70.1769 68.7877V76.4936C70.1769 77.2375 69.5805 77.8378 68.8443 77.8378Z" fill="#232426"/>
<path d="M56.5569 60.9265C53.2868 60.9265 50.6273 58.2497 50.6273 54.9582C50.6273 51.6668 53.2868 48.9871 56.5569 48.9871C59.8271 48.9871 62.4894 51.6639 62.4894 54.9582C62.4894 58.2497 59.8271 60.9265 56.5569 60.9265ZM56.5569 51.6725C54.7592 51.6725 53.2953 53.1459 53.2953 54.9554C53.2953 56.7648 54.7592 58.2382 56.5569 58.2382C58.3575 58.2382 59.8185 56.7648 59.8185 54.9554C59.8214 53.1459 58.3575 51.6725 56.5569 51.6725Z" fill="#232426"/>
<path d="M49.3603 77.8382C48.6241 77.8382 48.0248 77.238 48.0248 76.4941V69.6325C48.0248 68.8915 48.6212 68.2913 49.3603 68.2913C50.0965 68.2913 50.6929 68.8915 50.6929 69.6325V76.4941C50.6929 77.238 50.0965 77.8382 49.3603 77.8382Z" fill="#232426"/>
<path d="M63.7535 77.8382C63.0173 77.8382 62.4209 77.238 62.4209 76.4941V69.6325C62.4209 68.8915 63.0173 68.2913 63.7535 68.2913C64.4898 68.2913 65.089 68.8915 65.089 69.6325V76.4941C65.089 77.238 64.4926 77.8382 63.7535 77.8382Z" fill="#232426"/>
<path d="M41.3561 77.838C40.6199 77.838 40.0207 77.2378 40.0207 76.4939C40.0207 75.7529 40.617 75.1526 41.3561 75.1526H71.7605C72.4968 75.1526 73.096 75.7529 73.096 76.4939C73.096 77.2349 72.4996 77.838 71.7605 77.838H41.3561Z" fill="#232426"/>
<path d="M107.935 77.8378C107.199 77.8378 106.599 77.2375 106.599 76.4936V68.7877C106.599 66.5101 104.756 64.6547 102.493 64.6547H88.8018C86.5361 64.6547 84.6927 66.5101 84.6927 68.7877V76.4936C84.6927 77.2347 84.0964 77.8378 83.3573 77.8378C82.6211 77.8378 82.0247 77.2375 82.0247 76.4936V68.7877C82.0247 65.0281 85.0637 61.9692 88.8018 61.9692H102.49C106.226 61.9692 109.267 65.0281 109.267 68.7877V76.4936C109.27 77.2375 108.671 77.8378 107.935 77.8378Z" fill="#232426"/>
<path d="M95.6503 60.9265C92.3802 60.9265 89.7207 58.2497 89.7207 54.9582C89.7207 51.6668 92.3802 48.9871 95.6503 48.9871C98.9205 48.9871 101.583 51.6639 101.583 54.9582C101.58 58.2497 98.9205 60.9265 95.6503 60.9265ZM95.6503 51.6725C93.8526 51.6725 92.3887 53.1459 92.3887 54.9554C92.3887 56.7648 93.8526 58.2382 95.6503 58.2382C97.4481 58.2382 98.9119 56.7648 98.9119 54.9554C98.9119 53.1459 97.4481 51.6725 95.6503 51.6725Z" fill="#232426"/>
<path d="M88.4509 77.8382C87.7147 77.8382 87.1183 77.238 87.1183 76.4941V69.6325C87.1183 68.8915 87.7147 68.2913 88.4509 68.2913C89.1871 68.2913 89.7863 68.8915 89.7863 69.6325V76.4941C89.7863 77.238 89.1871 77.8382 88.4509 77.8382Z" fill="#232426"/>
<path d="M102.847 77.8382C102.111 77.8382 101.514 77.238 101.514 76.4941V69.6325C101.514 68.8915 102.111 68.2913 102.847 68.2913C103.583 68.2913 104.182 68.8915 104.182 69.6325V76.4941C104.182 77.238 103.583 77.8382 102.847 77.8382Z" fill="#232426"/>
<path d="M80.4467 77.838C79.7105 77.838 79.1113 77.2378 79.1113 76.4939C79.1113 75.7529 79.7076 75.1526 80.4467 75.1526H110.851C111.587 75.1526 112.184 75.7529 112.184 76.4939C112.184 77.2349 111.587 77.838 110.851 77.838H80.4467Z" fill="#232426"/>
<path d="M29.7508 77.8378C29.0146 77.8378 28.4182 77.2375 28.4182 76.4936V68.7877C28.4182 66.5101 26.5748 64.6547 24.3119 64.6547H10.6207C8.35782 64.6547 6.51443 66.5101 6.51443 68.7877V76.4936C6.51443 77.2347 5.91804 77.8378 5.17898 77.8378C4.44276 77.8378 3.84637 77.2375 3.84637 76.4936V68.7877C3.84637 65.0281 6.88539 61.9692 10.6207 61.9692H24.3119C28.0472 61.9692 31.0891 65.0281 31.0891 68.7877V76.4936C31.0862 77.2375 30.4898 77.8378 29.7508 77.8378Z" fill="#232426"/>
<path d="M17.4663 60.9265C14.1962 60.9265 11.5338 58.2497 11.5338 54.9582C11.5338 51.6668 14.1933 48.9871 17.4663 48.9871C20.7365 48.9871 23.396 51.6639 23.396 54.9582C23.396 58.2497 20.7365 60.9265 17.4663 60.9265ZM17.4663 51.6725C15.6658 51.6725 14.2019 53.1459 14.2019 54.9554C14.2019 56.7648 15.6658 58.2382 17.4663 58.2382C19.2641 58.2382 20.7279 56.7648 20.7279 54.9554C20.7279 53.1459 19.2641 51.6725 17.4663 51.6725Z" fill="#232426"/>
<path d="M10.2669 77.8382C9.53064 77.8382 8.9314 77.238 8.9314 76.4941V69.6325C8.9314 68.8915 9.52779 68.2913 10.2669 68.2913C11.0031 68.2913 11.5995 68.8915 11.5995 69.6325V76.4941C11.6023 77.238 11.0031 77.8382 10.2669 77.8382Z" fill="#232426"/>
<path d="M24.6629 77.8382C23.9267 77.8382 23.3275 77.238 23.3275 76.4941V69.6325C23.3275 68.8915 23.9239 68.2913 24.6629 68.2913C25.3992 68.2913 25.9955 68.8915 25.9955 69.6325V76.4941C25.9984 77.238 25.3992 77.8382 24.6629 77.8382Z" fill="#232426"/>
<path d="M2.26262 77.838C1.52641 77.838 0.930023 77.2378 0.930023 76.4939C0.930023 75.7529 1.52641 75.1526 2.26262 75.1526H32.6671C33.4033 75.1526 34.0025 75.7529 34.0025 76.4939C34.0025 77.2349 33.4061 77.838 32.6671 77.838H2.26262Z" fill="#232426"/>
</svg>
