<?xml version="1.0" standalone="yes"?><svg width="80" height="78" viewBox="0 0 80 78" fill="none" xmlns="http://www.w3.org/2000/svg">
<path d="M39.9349 14.7357C35.8976 14.7357 32.6148 11.4315 32.6148 7.36786C32.6148 3.30421 35.8976 0 39.9349 0C43.9723 0 47.2551 3.30421 47.2551 7.36786C47.2551 11.4315 43.9692 14.7357 39.9349 14.7357ZM39.9349 2.86324C37.4675 2.86324 35.4595 4.88435 35.4595 7.36786C35.4595 9.85138 37.4675 11.8725 39.9349 11.8725C42.4024 11.8725 44.4104 9.85138 44.4104 7.36786C44.4104 4.88435 42.4024 2.86324 39.9349 2.86324Z" fill="#232426"/>
<path d="M20.6762 77.7543C19.0698 77.7543 17.5516 77.0439 16.508 75.8067C15.714 77.0439 14.1958 77.7543 12.5894 77.7543C9.57428 77.7543 7.12207 75.2861 7.12207 72.2514V50.3438C6.85737 50.745 6.32799 50.9011 5.78034 50.9532C5.63126 50.9685 5.48218 50.9746 5.33615 50.9746C4.17393 50.9746 3.06343 50.5428 2.21154 49.762C1.24709 48.877 0.693359 47.6184 0.693359 46.3046V29.2293C0.693359 24.8717 4.21652 21.3286 8.54289 21.3286H24.5766C25.0391 21.3286 25.4742 21.5552 25.7419 21.9349C26.0066 22.3177 26.0735 22.8077 25.9153 23.2425C25.6993 23.8611 25.5867 24.492 25.5867 25.1228V43.668C25.5867 44.0477 25.6993 44.4213 25.9184 44.7704C26.0613 45.0001 26.1374 45.2635 26.1374 45.5329L26.1404 72.2545C26.1435 75.2861 23.6913 77.7543 20.6762 77.7543ZM16.6328 51.1339C17.4177 51.1339 18.0566 51.7739 18.0566 52.5639V72.2483C18.0566 73.7029 19.231 74.888 20.6762 74.888C22.1214 74.888 23.2988 73.706 23.2988 72.2483V46.1791C22.9398 45.242 22.7451 44.452 22.7451 43.668V25.1228C22.7451 24.7492 22.7694 24.3756 22.8211 24.0081L8.54593 24.1919C5.78643 24.1919 3.53805 26.4518 3.53805 29.2293V46.3046C3.53805 46.8191 3.74798 47.2907 4.12525 47.6398C4.45383 47.943 4.88282 48.1083 5.32702 48.1083C6.41317 48.0103 7.12207 47.1621 7.12207 46.1638V34.4413C7.12207 33.6513 7.75794 33.0082 8.54289 33.0082C9.32785 33.0082 9.96676 33.6482 9.96676 34.4413V72.2483C9.96676 73.7029 11.1411 74.888 12.5894 74.888C14.0345 74.888 15.2089 73.706 15.2089 72.2483V52.5639C15.2089 51.7769 15.8478 51.1339 16.6328 51.1339Z" fill="#232426"/>
<path d="M16.6328 19.7825C12.8541 19.7825 9.78117 16.6896 9.78117 12.8863C9.78117 9.0829 12.8541 5.98999 16.6328 5.98999C20.4115 5.98999 23.4844 9.0829 23.4844 12.8863C23.4874 16.6896 20.4115 19.7825 16.6328 19.7825ZM16.6328 8.85323C14.424 8.85323 12.6259 10.663 12.6259 12.8863C12.6259 15.1095 14.424 16.9193 16.6328 16.9193C18.8416 16.9193 20.6397 15.1095 20.6397 12.8863C20.6397 10.663 18.8416 8.85323 16.6328 8.85323Z" fill="#232426"/>
<path d="M67.2744 77.7547C65.668 77.7547 64.1498 77.0442 63.1063 75.8071C62.3122 77.0442 60.794 77.7547 59.1876 77.7547C56.1725 77.7547 53.7203 75.2865 53.7203 72.2517V46.1641C53.7203 46.0171 53.7416 45.8763 53.7812 45.7385C54.0641 44.8198 54.274 43.8858 54.274 43.6653V25.1231C54.274 24.4954 54.1615 23.8615 53.9454 23.2429C53.7903 22.8081 53.8542 22.3211 54.1189 21.9384C54.3866 21.5586 54.8186 21.332 55.2841 21.332H71.3148C75.6442 21.332 79.1643 24.8782 79.1643 29.2327V46.308C79.1643 47.6187 78.6106 48.8804 77.6462 49.7623C76.7912 50.5432 75.6777 50.975 74.5155 50.975C74.3694 50.975 74.2204 50.9688 74.0743 50.9535C73.5297 50.9015 73.0003 50.7453 72.4983 50.4911L72.7356 72.2548C72.7417 75.2865 70.2895 77.7547 67.2744 77.7547ZM63.231 51.1342C64.016 51.1342 64.6549 51.7742 64.6549 52.5643V72.2487C64.6549 73.7033 65.8293 74.8884 67.2744 74.8884C68.7196 74.8884 69.897 73.7063 69.897 72.2487L69.894 34.4417C69.894 33.6516 70.5299 33.0085 71.3179 33.0085C72.1028 33.0085 72.7387 33.6486 72.7387 34.4417V46.0845C72.7478 47.1655 73.4537 48.0137 74.3542 48.0995C74.3694 48.0995 74.3877 48.0995 74.4029 48.0995C75.0053 48.0995 75.4191 47.9341 75.7385 47.6401C76.1158 47.2941 76.3257 46.8195 76.3257 46.305V29.2297C76.3257 26.4522 74.0804 24.1922 71.3209 24.1922H56.8875C57.0974 24.3759 57.1248 24.7465 57.1248 25.1201V43.6653C57.1248 44.4033 56.7749 45.6956 56.562 46.3999L56.568 72.2487C56.568 73.7033 57.7424 74.8884 59.1906 74.8884C60.6358 74.8884 61.8102 73.7063 61.8102 72.2487V52.5643C61.8071 51.7773 62.4461 51.1342 63.231 51.1342Z" fill="#232426"/>
<path d="M44.3283 77.7024C42.5667 77.7024 40.9207 76.9124 39.8072 75.5313C38.9522 76.9124 37.3032 77.7024 35.5416 77.7024C32.3349 77.7024 29.7275 75.0781 29.7275 71.8504V47.8727C29.3989 48.3382 28.7813 48.5311 28.1363 48.5923C27.9781 48.6076 27.8199 48.6138 27.6647 48.6138C25.9762 48.6138 24.4245 47.7502 23.5179 46.2987C23.0128 45.4933 22.7451 44.5838 22.7451 43.6651V25.123C22.7451 24.1645 22.9124 23.206 23.241 22.2781C24.4306 18.9188 27.61 16.6619 31.1483 16.6619H48.7155C52.2569 16.6619 55.4363 18.9188 56.6259 22.2781C56.9575 23.1998 57.1218 24.1553 57.1218 25.1199V43.6651C57.1218 44.5869 56.854 45.5025 56.3429 46.3109C55.4332 47.7533 53.8816 48.6138 52.2021 48.6138C52.047 48.6138 51.8888 48.6046 51.7305 48.5923C51.0855 48.5311 50.471 48.3382 49.899 48.0166L50.1424 71.8504C50.1424 75.0781 47.532 77.7024 44.3283 77.7024ZM39.9349 70.4203C40.7199 70.4203 41.3588 71.0603 41.3588 71.8504C41.3588 73.4979 42.6914 74.8392 44.3283 74.8392C45.9651 74.8392 47.2977 73.4979 47.2977 71.8504V43.5304C47.2977 42.7403 47.9336 42.1003 48.7185 42.1003C49.5035 42.1003 50.1393 42.7403 50.1424 43.5273C50.1454 44.6695 50.9638 45.6403 52.0044 45.7413C52.0165 45.7413 52.0257 45.7413 52.0378 45.7413C52.9232 45.7413 53.5651 45.3769 53.9455 44.7737C54.1645 44.4246 54.2801 44.051 54.2801 43.6682V25.123C54.2801 24.4952 54.1676 23.8613 53.9515 23.2427C53.1605 21.0195 51.0582 19.5282 48.7216 19.5282H31.1544C28.8148 19.5282 26.7124 21.0226 25.9244 23.2427C25.7054 23.8613 25.5928 24.4921 25.5928 25.123V43.6682C25.5928 44.0479 25.7054 44.4215 25.9244 44.7706C26.3078 45.3861 26.9619 45.7505 27.6708 45.7505C28.9121 45.6403 29.7306 44.6665 29.7306 43.5181C29.7306 42.7281 30.3664 42.088 31.1544 42.088C31.9394 42.088 32.5753 42.7281 32.5753 43.5181V71.8504C32.5753 73.4979 33.9078 74.8392 35.5447 74.8392C37.1815 74.8392 38.5172 73.4979 38.5172 71.8504C38.5111 71.0603 39.15 70.4203 39.9349 70.4203Z" fill="#232426"/>
<path d="M63.231 19.7825C59.4523 19.7825 56.3794 16.6896 56.3794 12.8863C56.3794 9.0829 59.4523 5.98999 63.231 5.98999C67.0097 5.98999 70.0826 9.0829 70.0826 12.8863C70.0857 16.6896 67.0097 19.7825 63.231 19.7825ZM63.231 8.85323C61.0222 8.85323 59.2241 10.663 59.2241 12.8863C59.2241 15.1095 61.0222 16.9193 63.231 16.9193C65.4398 16.9193 67.2379 15.1095 67.2379 12.8863C67.2379 10.663 65.4398 8.85323 63.231 8.85323Z" fill="#232426"/>
<path d="M39.9349 73.2836C39.15 73.2836 38.5141 72.6436 38.5141 71.8505V50.589C38.5141 49.799 39.15 49.1589 39.9349 49.1589C40.7199 49.1589 41.3588 49.799 41.3588 50.589V71.8474C41.3588 72.6406 40.7199 73.2836 39.9349 73.2836Z" fill="#232426"/>
<path d="M31.1514 44.9485C30.3664 44.9485 29.7275 44.3085 29.7275 43.5153V29.0552C29.7275 28.2652 30.3634 27.6221 31.1514 27.6221C31.9363 27.6221 32.5722 28.2621 32.5722 29.0552V43.5153C32.5722 44.3085 31.9333 44.9485 31.1514 44.9485Z" fill="#232426"/>
<path d="M48.7185 44.9607C47.9336 44.9607 47.2977 44.3207 47.2977 43.5276V29.0552C47.2977 28.2652 47.9336 27.6221 48.7185 27.6221C49.5035 27.6221 50.1424 28.2621 50.1424 29.0552V43.5276C50.1424 44.3207 49.5035 44.9607 48.7185 44.9607Z" fill="#232426"/>
</svg>
