<?xml version="1.0" standalone="yes"?><svg width="95" height="70" viewBox="0 0 95 70" fill="none" xmlns="http://www.w3.org/2000/svg">
<path d="M6.25975 65.4945C5.40124 65.4945 4.70578 64.7945 4.70578 63.9304V1.56745C4.70578 0.703342 5.40124 0 6.25975 0C7.11826 0 7.81704 0.699993 7.81704 1.56745V62.5405L93.0025 62.3596C93.861 62.3596 94.5564 63.0596 94.5564 63.9271C94.5564 64.7912 93.861 65.4912 93.0025 65.4912H6.25975V65.4945Z" fill="#232426"/>
<path d="M2.1635 7.25816C1.74756 7.25816 1.35824 7.09405 1.06541 6.79932C0.456468 6.18975 0.456468 5.19503 1.06541 4.58211L5.16163 0.459191C5.44115 0.174504 5.84045 0.0170898 6.26305 0.0170898C6.68232 0.0170898 7.08163 0.177854 7.36115 0.459191L11.4574 4.58211C12.0663 5.19168 12.0663 6.1864 11.4574 6.79932C11.1645 7.09405 10.7719 7.25816 10.3559 7.25816C9.94 7.25816 9.54735 7.0974 9.25785 6.79932L6.13328 3.65437L3.26493 6.79932C2.9721 7.09405 2.57945 7.25816 2.1635 7.25816Z" fill="#232426"/>
<path d="M88.9062 69.6173C88.4903 69.6173 88.0976 69.4565 87.8048 69.1585C87.1959 68.5489 87.1959 67.5542 87.8048 66.9413L90.9294 63.7997L87.8048 60.9093C87.1959 60.2997 87.1959 59.305 87.8048 58.6954C88.0976 58.3973 88.4903 58.2366 88.9029 58.2366C89.3189 58.2366 89.7115 58.3973 90.0043 58.6954L94.1005 62.8183C94.3967 63.1131 94.5597 63.5083 94.5564 63.9269C94.5564 64.3456 94.3934 64.7375 94.1005 65.0322L90.0043 69.1551C89.7115 69.4565 89.3222 69.6173 88.9062 69.6173Z" fill="#232426"/>
<path d="M18.9277 47.7904C15.4638 47.7904 12.6487 44.9569 12.6487 41.4703C12.6487 37.9838 15.4638 35.147 18.9277 35.147C22.3917 35.147 25.2102 37.9838 25.2102 41.4703C25.2102 44.9569 22.3917 47.7904 18.9277 47.7904ZM18.9277 38.2785C17.1808 38.2785 15.7599 39.7086 15.7599 41.4703C15.7599 43.2287 17.1808 44.6588 18.9277 44.6588C20.678 44.6588 22.0989 43.2287 22.0989 41.4703C22.0989 39.7086 20.6747 38.2785 18.9277 38.2785Z" fill="#232426"/>
<path d="M41.3489 30.6658C37.8849 30.6658 35.0664 27.829 35.0664 24.3424C35.0664 20.8559 37.8849 18.019 41.3489 18.019C44.8128 18.019 47.6313 20.8559 47.6313 24.3424C47.628 27.8323 44.8128 30.6658 41.3489 30.6658ZM41.3489 21.1539C39.5986 21.1539 38.1777 22.5841 38.1777 24.3458C38.1777 26.1075 39.5986 27.5376 41.3489 27.5376C43.0958 27.5376 44.5167 26.1075 44.5167 24.3458C44.5167 22.5841 43.0958 21.1539 41.3489 21.1539Z" fill="#232426"/>
<path d="M64.086 41.7014C60.622 41.7014 57.8036 38.8646 57.8036 35.3781C57.8036 31.8915 60.622 29.0547 64.086 29.0547C67.55 29.0547 70.3651 31.8915 70.3651 35.3781C70.3684 38.868 67.55 41.7014 64.086 41.7014ZM64.086 32.1896C62.3357 32.1896 60.9149 33.6197 60.9149 35.3814C60.9149 37.1431 62.3357 38.5732 64.086 38.5732C65.833 38.5732 67.2538 37.1431 67.2538 35.3814C67.2572 33.6197 65.833 32.1896 64.086 32.1896Z" fill="#232426"/>
<path d="M80.9101 13.491C77.4461 13.491 74.6277 10.6542 74.6277 7.16762C74.6277 3.68105 77.4461 0.844238 80.9101 0.844238C84.3741 0.844238 87.1925 3.68105 87.1925 7.16762C87.1925 10.6542 84.3741 13.491 80.9101 13.491ZM80.9101 3.97579C79.1598 3.97579 77.7389 5.40591 77.7389 7.16762C77.7389 8.92932 79.1598 10.3595 80.9101 10.3595C82.6571 10.3595 84.0779 8.92932 84.0779 7.16762C84.0813 5.40591 82.6571 3.97579 80.9101 3.97579Z" fill="#232426"/>
<path d="M6.25975 47.7937C5.58759 47.7937 4.99528 47.3617 4.78232 46.722C4.51279 45.9014 4.95202 45.0138 5.76727 44.7425L13.7068 42.0799C13.8665 42.0263 14.0329 41.9995 14.1993 41.9995C14.8715 41.9995 15.4638 42.4316 15.6734 43.0713C15.9463 43.8885 15.5037 44.776 14.6918 45.0507L6.7489 47.7133C6.59584 47.7669 6.42946 47.7937 6.25975 47.7937Z" fill="#232426"/>
<path d="M23.6562 40.941C23.2303 40.941 22.8376 40.7736 22.5415 40.4688C21.9425 39.8525 21.9558 38.8612 22.5681 38.2549L35.5356 25.5077C35.8284 25.2197 36.2144 25.0623 36.6237 25.0623C37.0463 25.0623 37.4423 25.2297 37.7384 25.5345C38.3374 26.1541 38.3241 27.1488 37.7118 27.7517L24.7476 40.4989C24.4481 40.7836 24.0622 40.941 23.6562 40.941Z" fill="#232426"/>
<path d="M59.3609 35.8537C59.1014 35.8537 58.8418 35.7867 58.6122 35.6594L44.7463 27.9997C44.3802 27.7988 44.114 27.4638 44.0009 27.0653C43.8844 26.6634 43.931 26.238 44.1307 25.8729C44.4035 25.3706 44.926 25.0591 45.4983 25.0591C45.7579 25.0591 46.0174 25.1261 46.247 25.2533L60.1129 32.9131C60.865 33.3284 61.1411 34.2796 60.7285 35.0398C60.4523 35.5422 59.9266 35.8537 59.3609 35.8537Z" fill="#232426"/>
<path d="M67.0708 33.258C66.8113 33.258 66.5517 33.191 66.3254 33.0671C65.5734 32.6518 65.2939 31.7006 65.7065 30.9403L76.9037 10.3592C77.1766 9.85682 77.7023 9.54199 78.2714 9.54199C78.5309 9.54199 78.7871 9.60898 79.0167 9.73625C79.3828 9.9372 79.649 10.2721 79.7654 10.6707C79.8819 11.0726 79.8353 11.4946 79.6357 11.8597L68.4384 32.4408C68.1656 32.9465 67.6398 33.258 67.0708 33.258Z" fill="#232426"/>
</svg>
