<?xml version="1.0" standalone="yes"?><svg width="88" height="71" viewBox="0 0 88 71" fill="none" xmlns="http://www.w3.org/2000/svg">
<path d="M6.36156 70.6176C3.22665 70.6176 0.675476 68.0498 0.675476 64.8945V5.72315C0.675476 2.5678 3.22665 0 6.36156 0H81.6118C84.7467 0 87.2979 2.5678 87.2979 5.72315V64.8945C87.2979 68.0498 84.7467 70.6176 81.6118 70.6176H6.36156ZM6.36156 2.90665C4.81727 2.90665 3.5633 4.1719 3.5633 5.72315V64.8945C3.5633 66.4457 4.81727 67.711 6.36156 67.711H81.6118C83.1561 67.711 84.4101 66.4488 84.4101 64.8945V5.72315C84.4101 4.1719 83.1561 2.90665 81.6118 2.90665H6.36156Z" fill="#232426"/>
<path d="M2.11599 16.0023C1.31605 16.0023 0.670532 15.3495 0.670532 14.5506V5.72803C0.670532 2.56958 3.2217 0.00488281 6.35662 0.00488281H81.6069C84.7418 0.00488281 87.293 2.57268 87.293 5.72803V14.5506C87.293 15.3526 86.6475 16.0023 85.8506 16.0023H2.11599ZM6.35662 2.91153C4.81232 2.91153 3.55836 4.17678 3.55836 5.72803V13.2636L84.5719 13.0957L84.4051 5.72803C84.4051 4.17678 83.1512 2.91153 81.6069 2.91153H6.35662Z" fill="#232426"/>
<path d="M8.30554 9.41964L7.79901 9.20825C7.31101 8.76059 7.15659 8.38444 7.15659 8.00206C7.15659 7.61969 7.31101 7.24354 7.58281 6.97308L8.11405 6.81453L8.04919 6.66221L8.59896 6.55029C8.98194 6.55029 9.35566 6.70573 9.62437 6.9793C9.89307 7.24975 10.0444 7.6228 10.0444 8.00517C10.0444 8.38444 9.89307 8.76059 9.62437 9.03416C9.35566 9.30462 8.98194 9.46005 8.60204 9.46005L8.30554 9.41964Z" fill="#232426"/>
<path d="M18.9364 9.45367C18.5565 9.45367 18.1828 9.30134 17.9141 9.03089C17.6454 8.75732 17.491 8.38427 17.491 8.0019C17.491 7.61953 17.6454 7.24337 17.9141 6.97602C18.1705 6.71489 18.5442 6.56567 18.9364 6.56567C19.3287 6.56567 19.6993 6.71489 19.9587 6.97602C20.2275 7.24648 20.3819 7.61953 20.3819 8.0019C20.3819 8.38427 20.2305 8.76043 19.9618 9.03089C19.69 9.30134 19.3163 9.45367 18.9364 9.45367Z" fill="#232426"/>
<path d="M13.7723 9.45385C13.3924 9.45385 13.0187 9.30153 12.75 9.03107C12.4813 8.7575 12.3269 8.38445 12.3269 8.00208C12.3269 7.61971 12.4813 7.24355 12.75 6.97309C13.0064 6.71507 13.3801 6.56274 13.7723 6.56274C14.1646 6.56274 14.5352 6.71196 14.7916 6.97309C15.0603 7.24355 15.2147 7.6166 15.2147 8.00208C15.2147 8.38756 15.0603 8.76061 14.7916 9.03107C14.5229 9.30153 14.1522 9.45385 13.7723 9.45385Z" fill="#232426"/>
<path d="M12.0612 61.8107C11.2644 61.8107 10.6189 61.161 10.6189 60.3589C10.6189 59.5569 11.2644 58.9041 12.0612 58.9041H75.9084C76.7053 58.9041 77.3539 59.5538 77.3539 60.3589C77.3539 61.161 76.7084 61.8107 75.9084 61.8107H12.0612Z" fill="#232426"/>
<path d="M16.4965 61.8102C15.6996 61.8102 15.051 61.1605 15.051 60.3584V49.6333C15.051 48.8313 15.6965 48.1785 16.4965 48.1785H25.441C26.2378 48.1785 26.8864 48.8282 26.8864 49.6333V60.3584C26.8864 61.1605 26.2409 61.8102 25.441 61.8102H16.4965ZM17.9388 59.0714L24.1654 58.9035L23.9986 50.9204L17.9388 51.0851V59.0714Z" fill="#232426"/>
<path d="M31.8375 61.8102C31.0406 61.8102 30.3951 61.1605 30.3951 60.3585V36.7633C30.3951 35.9612 31.0406 35.3115 31.8375 35.3115H40.7851C41.582 35.3115 42.2275 35.9612 42.2275 36.7633V60.3585C42.2275 61.1605 41.582 61.8102 40.7851 61.8102H31.8375ZM33.2829 59.0715L39.5064 58.9036L39.3396 38.0503L33.2829 38.212V59.0715Z" fill="#232426"/>
<path d="M47.1847 61.8106C46.3878 61.8106 45.7392 61.1609 45.7392 60.3589V43.6277C45.7392 42.8257 46.3847 42.1729 47.1847 42.1729H56.1323C56.9291 42.1729 57.5777 42.8226 57.5777 43.6277V60.3589C57.5777 61.1609 56.9322 61.8106 56.1323 61.8106H47.1847ZM48.627 59.0719L54.8536 58.904L54.6868 44.9116L48.627 45.0764V59.0719Z" fill="#232426"/>
<path d="M62.5287 61.8105C61.7319 61.8105 61.0864 61.1607 61.0864 60.3587V28.1835C61.0864 27.3814 61.7319 26.7317 62.5287 26.7317H71.4764C72.2732 26.7317 72.9187 27.3814 72.9187 28.1835V60.3587C72.9187 61.1607 72.2732 61.8105 71.4764 61.8105H62.5287ZM63.9711 59.0717L70.1946 58.9038L70.0278 29.4705L63.9711 29.6352V59.0717Z" fill="#232426"/>
</svg>
