<?xml version="1.0" standalone="no"?>
<svg width="142" height="69" viewBox="0 0 142 69" fill="none" xmlns="http://www.w3.org/2000/svg">
<path d="M84.6668 47.1391C84.1604 47.1391 83.6575 47.0126 83.2143 46.7735C82.9682 47.0126 82.4828 47.1391 81.9904 47.1391H69.7937C69.3013 47.1391 68.816 47.0126 68.3939 46.7735C68.1302 47.0126 67.6308 47.1356 67.1278 47.1356L64.1525 47.1391C62.4784 47.1391 61.1209 45.8313 61.0717 44.1613L61.0049 42.5441C60.8888 40.1147 60.7727 37.5974 61.2264 35.2208C62.3835 29.1526 68.4502 29.1526 71.0422 29.1526H81.7654C87.1111 29.1526 90.5366 32.0074 90.7019 36.606C90.7722 38.6029 90.7511 40.6209 90.7265 42.5722L90.7089 44.0769C90.6949 45.7645 89.3127 47.1356 87.6246 47.1356L84.6668 47.1391ZM83.2284 37.847C84.1358 37.8505 84.8743 38.5888 84.8743 39.4924V44.0558L87.6246 43.8554L87.4382 42.5405C87.4593 40.5788 87.4839 38.624 87.4171 36.729C87.287 33.1887 84.2729 32.4433 81.7654 32.4433H71.0422C66.7164 32.4433 64.9333 33.3645 64.462 35.8395C64.0822 37.8294 64.1877 40.1358 64.2897 42.3648L64.36 44.0558L67.1103 43.8519L66.9239 39.4889C66.9239 38.5818 67.6589 37.8435 68.5698 37.8435C69.4772 37.8435 70.2122 38.5783 70.2122 39.4889V44.0382L81.7583 43.8484L81.5825 39.4818C81.586 38.5818 82.3245 37.847 83.2284 37.847Z" fill="#232426"/>
<path d="M75.8991 28.1154C72.2767 28.1154 69.333 25.1728 69.333 21.548C69.333 17.9268 72.2767 14.9841 75.8991 14.9841C79.5215 14.9841 82.4687 17.9268 82.4687 21.548C82.4687 25.1728 79.5215 28.1154 75.8991 28.1154ZM75.8991 18.2749C74.0914 18.2749 72.6213 19.7444 72.6213 21.5515C72.6213 23.3586 74.0914 24.8282 75.8991 24.8282C77.7068 24.8282 79.1769 23.3586 79.1769 21.5515C79.1769 19.7444 77.7068 18.2749 75.8991 18.2749Z" fill="#232426"/>
<path d="M75.8252 58.1329C61.6625 58.1329 50.1375 46.6118 50.1375 32.4503C50.1375 18.2889 61.6625 6.76782 75.8252 6.76782C89.9915 6.76782 101.516 18.2889 101.516 32.4503C101.516 46.6118 89.9915 58.1329 75.8252 58.1329ZM75.8252 10.0586C63.4738 10.0586 53.4259 20.1066 53.4259 32.4539C53.4259 44.8012 63.4738 54.8492 75.8252 54.8492C88.1767 54.8492 98.2281 44.8012 98.2281 32.4539C98.2281 20.1066 88.1767 10.0586 75.8252 10.0586Z" fill="#232426"/>
<path d="M122.572 23.552C116.762 23.552 112.036 18.8268 112.036 13.0188C112.036 7.21078 116.762 2.48914 122.572 2.48914C128.382 2.48914 133.109 7.2143 133.109 13.0223C133.109 18.8303 128.382 23.552 122.572 23.552ZM122.572 5.77636C118.577 5.77636 115.324 9.02842 115.324 13.0223C115.324 17.0162 118.577 20.2683 122.572 20.2683C126.568 20.2683 129.821 17.0162 129.821 13.0223C129.821 9.02491 126.568 5.77636 122.572 5.77636Z" fill="#232426"/>
<path d="M131.467 57.5668C125.657 57.5668 120.93 52.8416 120.93 47.0336C120.93 41.2256 125.657 36.504 131.467 36.504C137.277 36.504 142 41.2291 142 47.0336C142 52.8452 137.273 57.5668 131.467 57.5668ZM131.467 39.7912C127.472 39.7912 124.218 43.0433 124.218 47.0336C124.218 51.0275 127.472 54.2796 131.467 54.2796C135.462 54.2796 138.712 51.0275 138.712 47.0336C138.712 43.0433 135.458 39.7912 131.467 39.7912Z" fill="#232426"/>
<path d="M40.487 69C34.677 69 29.9503 64.2748 29.9503 58.4668C29.9503 52.6588 34.677 47.9337 40.487 47.9337C46.297 47.9337 51.0238 52.6588 51.0238 58.4668C51.0238 64.2748 46.297 69 40.487 69ZM40.487 51.2209C36.4918 51.2209 33.2386 54.4729 33.2386 58.4668C33.2386 62.4607 36.4918 65.7128 40.487 65.7128C44.4823 65.7128 47.7319 62.4607 47.7319 58.4668C47.7319 54.4729 44.4823 51.2209 40.487 51.2209Z" fill="#232426"/>
<path d="M34.5118 21.0628C28.7018 21.0628 23.975 16.3377 23.975 10.5332C23.975 4.72516 28.7018 0 34.5118 0C40.3217 0 45.0485 4.72516 45.0485 10.5332C45.0485 16.3412 40.3217 21.0628 34.5118 21.0628ZM34.5118 3.28722C30.5165 3.28722 27.2633 6.53928 27.2633 10.5332C27.2633 14.5271 30.5165 17.7756 34.5118 17.7756C38.507 17.7756 41.7602 14.5235 41.7602 10.5332C41.7602 6.53928 38.507 3.28722 34.5118 3.28722Z" fill="#232426"/>
<path d="M10.5368 45.8664C4.72677 45.8664 0 41.1448 0 35.3368C0 29.5287 4.72677 24.8036 10.5368 24.8036C16.3467 24.8036 21.07 29.5287 21.07 35.3368C21.07 41.1448 16.3467 45.8664 10.5368 45.8664ZM10.5368 28.0908C6.54151 28.0908 3.28834 31.3429 3.28834 35.3368C3.28834 39.3306 6.54151 42.5827 10.5368 42.5827C14.532 42.5827 17.7817 39.3306 17.7817 35.3368C17.7817 31.3429 14.5285 28.0908 10.5368 28.0908Z" fill="#232426"/>
<path d="M41.5069 16.3658L42.7414 13.518L55.3391 19.6987L54.0202 22.7152L41.5069 16.3658Z" fill="#232426"/>
<path d="M19.1427 33.8953L51.692 31.5854L52.0824 34.6617L19.3432 36.9892L19.1427 33.8953Z" fill="#232426"/>
<path d="M46.5924 52.1491L55.2898 45.1668L57.3402 47.5013L48.4951 54.5996L46.5924 52.1491Z" fill="#232426"/>
<path d="M97.3947 22.0964L114.026 15.4552L115.32 18.2783L98.5166 24.9864L97.3947 22.0964Z" fill="#232426"/>
<path d="M98.6854 40.2658L99.2024 37.2036L123.402 42.6214L122.843 45.8664L98.6854 40.2658Z" fill="#232426"/>
</svg>
