<?xml version="1.0" encoding="utf-8"?>
<!-- Generator: Adobe Illustrator 24.3.0, SVG Export Plug-In . SVG Version: 6.00 Build 0)  -->
<svg version="1.1" id="_x2014_ÎÓÈ_x5F_1" xmlns="http://www.w3.org/2000/svg" xmlns:xlink="http://www.w3.org/1999/xlink"
	 x="0px" y="0px" viewBox="0 0 257.9 260.8" style="enable-background:new 0 0 257.9 260.8;" xml:space="preserve">
<style type="text/css">
	.st0{fill:#232426;}
</style>
<g>
	<g>
		<g>
			<path class="st0" d="M129,55.2c-13.3,0-24.1-10.8-24.1-24.1c0-13.3,10.8-24.1,24.1-24.1c13.3,0,24.1,10.8,24.1,24.1
				C153,44.4,142.2,55.2,129,55.2z M129,16.4c-8.1,0-14.7,6.6-14.7,14.7c0,8.1,6.6,14.7,14.7,14.7s14.7-6.6,14.7-14.7
				C143.7,23,137.1,16.4,129,16.4z"/>
		</g>
		<g>
			<path class="st0" d="M65.7,261c-5.3,0-10.3-2.3-13.7-6.4c-2.6,4-7.6,6.4-12.9,6.4c-9.9,0-18-8.1-18-18v-71.5
				c-0.9,1.3-2.6,1.8-4.4,2c-0.5,0-1,0.1-1.5,0.1c-3.8,0-7.5-1.4-10.3-4c-3.2-2.9-5-7-5-11.3v-55.8c0-14.2,11.6-25.8,25.8-25.8h52.7
				c1.5,0,3,0.7,3.8,2c0.9,1.2,1.1,2.8,0.6,4.3c-0.7,2-1.1,4.1-1.1,6.1v60.6c0,1.2,0.4,2.5,1.1,3.6c0.5,0.8,0.7,1.6,0.7,2.5l0,87.3
				C83.6,252.9,75.6,261,65.7,261z M52.4,174.1c2.6,0,4.7,2.1,4.7,4.7V243c0,4.8,3.9,8.6,8.6,8.6c4.8,0,8.6-3.9,8.6-8.6v-85.1
				c-1.2-3.1-1.8-5.6-1.8-8.2V89.1c0-1.2,0.1-2.4,0.3-3.6l-46.9,0.6c-9.1,0-16.5,7.4-16.5,16.5v55.8c0,1.7,0.7,3.2,1.9,4.4
				c1.1,1,2.5,1.5,4,1.5c3.6-0.3,5.9-3.1,5.9-6.3v-38.3c0-2.6,2.1-4.7,4.7-4.7c2.6,0,4.7,2.1,4.7,4.7V243c0,4.8,3.9,8.6,8.6,8.6
				c4.7,0,8.6-3.9,8.6-8.6v-64.3C47.7,176.2,49.8,174.1,52.4,174.1z"/>
		</g>
		<g>
			<path class="st0" d="M52.4,71.7c-12.4,0-22.5-10.1-22.5-22.5c0-12.4,10.1-22.5,22.5-22.5s22.5,10.1,22.5,22.5
				C74.9,61.6,64.8,71.7,52.4,71.7z M52.4,36c-7.3,0-13.2,5.9-13.2,13.2c0,7.3,5.9,13.2,13.2,13.2s13.2-5.9,13.2-13.2
				C65.6,41.9,59.7,36,52.4,36z"/>
		</g>
		<g>
			<path class="st0" d="M218.8,261c-5.3,0-10.3-2.3-13.7-6.4c-2.6,4-7.6,6.4-12.9,6.4c-9.9,0-18-8.1-18-18v-85.2
				c0-0.5,0.1-0.9,0.2-1.4c0.9-3,1.6-6.1,1.6-6.8V89.1c0-2.1-0.4-4.1-1.1-6.1c-0.5-1.4-0.3-3,0.6-4.3c0.9-1.2,2.3-2,3.8-2h52.7
				c14.2,0,25.8,11.6,25.8,25.8v55.8c0,4.3-1.8,8.4-5,11.3c-2.8,2.6-6.5,4-10.3,4c-0.5,0-1,0-1.5-0.1c-1.8-0.2-3.5-0.7-5.2-1.5
				l0.8,71.1C236.8,252.9,228.7,261,218.8,261z M205.6,174.1c2.6,0,4.7,2.1,4.7,4.7V243c0,4.8,3.9,8.6,8.6,8.6
				c4.8,0,8.6-3.9,8.6-8.6l0-123.5c0-2.6,2.1-4.7,4.7-4.7c2.6,0,4.7,2.1,4.7,4.7v38c0,3.5,2.4,6.3,5.3,6.6c0.1,0,0.1,0,0.2,0
				c2,0,3.3-0.5,4.4-1.5c1.2-1.1,1.9-2.7,1.9-4.4v-55.8c0-9.1-7.4-16.5-16.5-16.5h-47.4c0.7,0.6,0.8,1.8,0.8,3v60.6
				c0,2.4-1.2,6.6-1.8,8.9l0,84.4c0,4.8,3.9,8.6,8.6,8.6c4.7,0,8.6-3.9,8.6-8.6v-64.3C200.9,176.2,203,174.1,205.6,174.1z"/>
		</g>
		<g>
			<path class="st0" d="M143.4,260.8c-5.8,0-11.2-2.6-14.9-7.1c-2.8,4.5-8.2,7.1-14,7.1c-10.5,0-19.1-8.6-19.1-19.1v-78.3
				c-1.1,1.5-3.1,2.1-5.2,2.4c-0.5,0-1,0.1-1.6,0.1c-5.5,0-10.6-2.8-13.6-7.6c-1.7-2.6-2.5-5.6-2.5-8.6V89.1c0-3.1,0.5-6.3,1.6-9.3
				c3.9-11,14.4-18.3,26-18.3h57.7c11.6,0,22.1,7.4,26,18.3c1.1,3,1.6,6.1,1.6,9.3v60.6c0,3-0.9,6-2.6,8.6c-3,4.7-8.1,7.5-13.6,7.5
				c-0.5,0-1,0-1.5-0.1c-2.1-0.2-4.1-0.8-6-1.9l0.8,77.8C162.5,252.2,154,260.8,143.4,260.8z M129,237c2.6,0,4.7,2.1,4.7,4.7
				c0,5.4,4.4,9.8,9.8,9.8s9.8-4.4,9.8-9.8v-92.5c0-2.6,2.1-4.7,4.7-4.7s4.7,2.1,4.7,4.7c0,3.7,2.7,6.9,6.1,7.2c0,0,0.1,0,0.1,0
				c2.9,0,5-1.2,6.3-3.2c0.7-1.1,1.1-2.4,1.1-3.6V89.1c0-2.1-0.4-4.1-1.1-6.1c-2.6-7.3-9.5-12.1-17.2-12.1h-57.7
				c-7.7,0-14.6,4.9-17.2,12.1c-0.7,2-1.1,4.1-1.1,6.1v60.6c0,1.2,0.4,2.5,1.1,3.6c1.3,2,3.4,3.2,5.7,3.2c4.1-0.4,6.8-3.5,6.8-7.3
				c0-2.6,2.1-4.7,4.7-4.7c2.6,0,4.7,2.1,4.7,4.7v92.5c0,5.4,4.4,9.8,9.8,9.8c5.4,0,9.8-4.4,9.8-9.8C124.3,239.1,126.4,237,129,237z
				"/>
		</g>
		<g>
			<path class="st0" d="M205.6,71.7c-12.4,0-22.5-10.1-22.5-22.5c0-12.4,10.1-22.5,22.5-22.5c12.4,0,22.5,10.1,22.5,22.5
				C228.1,61.6,218,71.7,205.6,71.7z M205.6,36c-7.3,0-13.2,5.9-13.2,13.2c0,7.3,5.9,13.2,13.2,13.2c7.3,0,13.2-5.9,13.2-13.2
				C218.7,41.9,212.8,36,205.6,36z"/>
		</g>
		<g>
			<path class="st0" d="M129,246.4c-2.6,0-4.7-2.1-4.7-4.7v-69.4c0-2.6,2.1-4.7,4.7-4.7c2.6,0,4.7,2.1,4.7,4.7v69.4
				C133.7,244.3,131.6,246.4,129,246.4z"/>
		</g>
		<g>
			<path class="st0" d="M100.1,153.9c-2.6,0-4.7-2.1-4.7-4.7V102c0-2.6,2.1-4.7,4.7-4.7c2.6,0,4.7,2.1,4.7,4.7v47.2
				C104.8,151.8,102.7,153.9,100.1,153.9z"/>
		</g>
		<g>
			<path class="st0" d="M157.8,153.9c-2.6,0-4.7-2.1-4.7-4.7V102c0-2.6,2.1-4.7,4.7-4.7c2.6,0,4.7,2.1,4.7,4.7v47.3
				C162.5,151.8,160.4,153.9,157.8,153.9z"/>
		</g>
	</g>
</g>
</svg>
