<?xml version="1.0" standalone="yes"?>
<svg width="90" height="90" viewBox="0 0 90 90" fill="none" xmlns="http://www.w3.org/2000/svg">
<path d="M38.2398 75.7433C25.0153 75.7433 14.2567 64.9847 14.2567 51.7602C14.2567 38.5357 25.0153 27.7806 38.2398 27.7806C51.4643 27.7806 62.2229 38.5392 62.2229 51.7602C62.2229 64.9812 51.4643 75.7433 38.2398 75.7433ZM38.2398 31.0709C26.833 31.0709 17.5505 40.3534 17.5505 51.7567C17.5505 63.1634 26.833 72.446 38.2398 72.446C49.6465 72.446 58.9291 63.1634 58.9291 51.7567C58.9291 40.3534 49.6501 31.0709 38.2398 31.0709Z" fill="#232426"/>
<path d="M38.2398 61.4796C32.8816 61.4796 28.524 57.1219 28.524 51.7603C28.524 46.4021 32.8816 42.0444 38.2398 42.0444C43.6015 42.0444 47.9591 46.4021 47.9591 51.7603C47.9591 57.1184 43.6015 61.4796 38.2398 61.4796ZM38.2398 45.3347C34.6994 45.3347 31.8178 48.2163 31.8178 51.7567C31.8178 55.2971 34.6994 58.1823 38.2398 58.1823C41.7802 58.1823 44.6653 55.2971 44.6653 51.7567C44.6653 48.2163 41.7837 45.3347 38.2398 45.3347Z" fill="#232426"/>
<path d="M38.2398 90C17.1559 90 0 72.8476 0 51.7602C0 30.6728 17.1559 13.5169 38.2398 13.5169C59.3236 13.5169 76.4796 30.6728 76.4796 51.7567C76.4796 72.8405 59.3272 90 38.2398 90ZM38.2398 16.8107C18.9702 16.8107 3.2938 32.4871 3.2938 51.7567C3.2938 71.0263 18.9702 86.7027 38.2398 86.7027C57.5094 86.7027 73.1858 71.0263 73.1858 51.7567C73.1858 32.4871 57.5129 16.8107 38.2398 16.8107Z" fill="#232426"/>
<path d="M38.2398 53.4089C37.7994 53.4089 37.3838 53.2398 37.0737 52.9262C36.4291 52.2851 36.4291 51.2388 37.0737 50.5977L79.5056 8.16579C79.8156 7.85578 80.2278 7.68317 80.6682 7.68317C81.1085 7.68317 81.5242 7.85578 81.8342 8.16931C82.1442 8.47932 82.3168 8.89148 82.3168 9.33183C82.3203 9.77218 82.1477 10.1879 81.8342 10.4979L39.4058 52.9262C39.0923 53.2362 38.6801 53.4089 38.2398 53.4089Z" fill="#232426"/>
<path d="M69.2579 22.3908C68.349 22.3908 67.6127 21.6545 67.6127 20.7421V8.21861C67.6127 7.30973 68.349 6.56995 69.2579 6.56995C70.1667 6.56995 70.9065 7.30621 70.9065 8.21861V20.7421C70.903 21.6545 70.1667 22.3908 69.2579 22.3908Z" fill="#232426"/>
<path d="M75.8279 15.8208C74.919 15.8208 74.1827 15.0845 74.1827 14.1721V1.64866C74.1827 0.739784 74.919 0 75.8279 0C76.7367 0 77.4765 0.736261 77.4765 1.64866V14.1721C77.4765 15.0845 76.7367 15.8208 75.8279 15.8208Z" fill="#232426"/>
<path d="M69.2579 22.3908C68.349 22.3908 67.6127 21.6545 67.6127 20.7421C67.6127 19.8332 68.349 19.0934 69.2579 19.0934H81.7849C82.6938 19.0934 83.43 19.8297 83.43 20.7421C83.43 21.651 82.6938 22.3908 81.7849 22.3908H69.2579Z" fill="#232426"/>
<path d="M75.8279 15.8208C74.919 15.8208 74.1827 15.0845 74.1827 14.1721C74.1827 13.2632 74.919 12.527 75.8279 12.527H88.3549C89.2637 12.527 90 13.2632 90 14.1721C90 15.081 89.2637 15.8208 88.3549 15.8208H75.8279Z" fill="#232426"/>
</svg>
